<svg width="92" height="64" viewBox="0 0 92 64" fill="none" xmlns="http://www.w3.org/2000/svg">
<path d="M81.8565 36.0492L67.6966 62.054L60.4669 58.1173L68.28 43.7686L55.561 55.446L49.5117 52.1521L52.4423 35.0013L44.5689 49.4607L37.3392 45.524L51.4992 19.5192L60.2412 24.2794L57.5711 44.7283L73.1514 31.3091L81.8565 36.0492Z" fill="#DF571B"/>
<path d="M9.72183 39.331C8.9335 36.5277 8.81186 33.8715 9.35691 31.3622C9.92133 28.8184 11.1112 26.6368 12.9264 24.8175C14.7341 22.9712 17.0396 21.6538 19.8428 20.8655C23.4008 19.8649 26.6618 19.9804 29.6259 21.212C32.5824 22.4166 34.8697 24.5511 36.4877 27.6155L27.9566 30.0146C27.1413 29.0804 26.1958 28.4592 25.1202 28.1509C24.0715 27.835 22.9541 27.8438 21.7682 28.1773C19.9353 28.6928 18.6519 29.7663 17.9182 31.3978C17.2039 32.9948 17.1537 34.885 17.7677 37.0683C18.3893 39.2786 19.4249 40.8925 20.8745 41.91C22.3435 42.8931 23.9944 43.1269 25.8273 42.6114C27.0133 42.2779 27.9715 41.703 28.7018 40.8868C29.459 40.0631 29.9421 39.0401 30.1511 37.8179L38.6822 35.4188C38.8985 38.8774 38.0629 41.9046 36.1752 44.5006C34.2799 47.0696 31.5532 48.8544 27.9952 49.855C25.192 50.6433 22.5416 50.7342 20.0442 50.1277C17.5391 49.4942 15.3866 48.2526 13.5866 46.4028C11.806 44.5185 10.5177 42.1612 9.72183 39.331Z" fill="#D92B11"/>
</svg>
